%
M48
M71
T01C0.600
T02C0.610
T03C0.635
T04C0.800
T05C0.813
%
T01
X11430Y6667
X14446Y9208
X19129Y10081
X20541Y11567
X23177Y10081
X50545Y10774
X59214Y7144
X60960Y8731
X66579Y9107
X66579Y23871
X58579Y25717
X53975Y28099
X48260Y28099
X44450Y25717
X42766Y24426
X37369Y23474
X32130Y23474
X28320Y23156
X23319Y24902
X25383Y27125
X21653Y29347
X6626Y24473
X10858Y23474
X10858Y21569
X10858Y19664
X6826Y12224
X12524Y13076
X14446Y13732
X17366Y12361
X15937Y15258
X13017Y15161
X20462Y18949
X21891Y20378
X24669Y18076
X24669Y15536
X35146Y20299
X56736Y19188
X57133Y21093
T02
X0Y0
X10954Y28734
X8334Y26273
X69300Y36800
X69300Y0
X0Y36800
T03
X8075Y10098
X5535Y10098
X2995Y10098
X2995Y7557
X5535Y7557
X8075Y7557
X62650Y14584
X62650Y17124
X62650Y19664
X62650Y22204
T04
X5825Y18308
X5825Y15807
X5825Y20808
T05
X28348Y10956
X30888Y10956
X33428Y10956
X35968Y10956
X38508Y10956
X41048Y10956
X41048Y26196
X38508Y26196
X35968Y26196
X33428Y26196
X30888Y26196
X28348Y26196
X26415Y18076
X26415Y15536
M30
