%
M48
M71
T01C0.600
T02C0.635
T03C0.813
T04C1.000
T05C1.016
T06C1.651
T07C3.300
%
T01
X0Y0
X9032Y1830
X10160Y6191
X19526Y10160
X24447Y9525
X29210Y9049
X31802Y11418
X31790Y11430
X34925Y9684
X37386Y7382
X34766Y5080
X42370Y2540
X49990Y2540
X57610Y2540
X65389Y2540
X70009Y0
X65405Y6350
X60150Y5080
X55070Y6175
X53022Y7302
X48419Y9684
X49689Y11430
X26194Y5318
X27129Y2540
X29669Y2540
X29986Y5080
X32209Y2540
X42228Y10001
X47450Y5398
X55070Y11430
X57944Y11589
X61912Y13732
X66341Y12382
X66358Y14922
X53074Y18744
X49899Y19399
X49899Y26670
X10160Y28416
X0Y31000
X70000Y31000
T02
X67770Y5080
X67770Y2540
X62690Y2540
X60150Y2540
X55070Y2540
X52530Y2540
X47450Y2540
X44910Y2540
X39830Y2540
X37290Y2540
X34750Y2540
X67770Y10160
X67770Y7620
T03
X61595Y7779
X61595Y10319
X63915Y26710
X67471Y26710
T04
X57202Y29448
X54662Y29448
X52122Y29448
X49582Y29448
X47042Y29448
X44502Y29448
X41962Y29448
X39422Y29448
X36882Y29448
X34342Y29448
X31802Y29448
X29262Y29448
X26722Y29448
X24182Y29448
X21642Y29448
X21642Y14208
X24182Y14208
X26722Y14208
X29262Y14208
X31802Y14208
X34342Y14208
X36882Y14208
X39422Y14208
X41962Y14208
X44502Y14208
X47042Y14208
X49582Y14208
X52122Y14208
X54662Y14208
X57202Y14208
T05
X3350Y1765
X3350Y28435
T06
X59742Y29448
X19102Y29448
X19102Y14208
X59742Y14208
T07
X18402Y20399
X60375Y20399
M30
